<svg width="165" height="41" viewBox="0 0 165 41" fill="none" xmlns="http://www.w3.org/2000/svg">
<path d="M15.1597 0.00959004C18.0653 -0.0336847 20.5644 0.837992 22.9013 2.22124C25.592 3.81467 27.6553 6.00623 29.0277 8.82063C29.8963 10.6026 30.3847 12.4897 30.5176 14.4757C30.6954 17.1495 30.1822 19.6795 29.054 22.0967C28.442 23.4073 27.5811 24.5649 26.762 25.7472C24.9259 28.3978 23.079 31.0391 21.2367 33.6866C19.7391 35.838 18.2461 37.9909 16.747 40.1407C15.9619 41.2659 14.6157 41.2952 13.8259 40.1747C12.1676 37.824 10.5324 35.4562 8.89107 33.0916C6.80307 30.084 4.70888 27.081 2.63478 24.0657C1.14335 21.8958 0.280948 19.4956 0.0614833 16.8666C-0.290897 12.6304 0.868248 8.86236 3.62083 5.61985C6.0674 2.73899 9.18627 0.953906 12.8893 0.198144C13.6837 0.0374095 14.4936 -0.0259571 15.1597 0.00959004ZM15.2973 9.50839V9.50685C13.2649 9.50685 11.2325 9.50994 9.20018 9.50375C8.7767 9.50221 8.3826 9.58258 8.02249 9.80204C7.24509 10.275 6.88498 11.2193 7.13226 12.1064C7.37955 12.992 8.18786 13.5855 9.20018 13.587C13.251 13.5932 17.3034 13.5917 21.3542 13.587C21.8843 13.587 22.3696 13.4294 22.7761 13.0816C23.4113 12.5392 23.6508 11.6443 23.3757 10.8777C23.0821 10.054 22.3511 9.51457 21.4686 9.51148C19.413 9.50221 17.3559 9.50839 15.2973 9.50839ZM17.3018 20.5017C17.3018 19.6285 17.3049 18.7537 17.3003 17.8805C17.2987 17.6255 17.3173 17.3705 17.2446 17.1155C16.9402 16.063 16.0129 15.4602 14.914 15.6101C13.982 15.7369 13.2294 16.6178 13.2201 17.6641C13.2031 19.5404 13.1985 21.4167 13.2216 23.2914C13.2371 24.5232 14.152 25.4134 15.3158 25.3948C16.4085 25.3763 17.359 24.4382 17.3096 23.2388C17.2709 22.327 17.3018 21.4136 17.3018 20.5017Z" fill="#FD027E"/>
<path d="M141.508 15.2131C142.755 15.2131 143.974 15.2131 145.195 15.2131C145.387 15.2131 145.412 15.3569 145.454 15.4944C146.09 17.5917 146.727 19.689 147.367 21.7847C147.763 23.0799 148.161 24.3735 148.634 25.6748C148.854 24.9221 149.073 24.1695 149.291 23.4168C150.053 20.7832 150.818 18.1496 151.566 15.5114C151.64 15.2518 151.759 15.2039 151.996 15.2085C152.781 15.2209 153.566 15.2255 154.351 15.207C154.636 15.1992 154.756 15.2981 154.833 15.5671C155.788 18.8791 156.753 22.1881 157.714 25.4986C157.733 25.5604 157.739 25.6254 157.846 25.6764C158.136 24.7351 158.427 23.8016 158.711 22.8666C159.459 20.4154 160.207 17.9626 160.946 15.5083C161.012 15.2858 161.117 15.207 161.352 15.2085C162.408 15.2209 163.464 15.2255 164.518 15.207C164.838 15.2008 164.875 15.275 164.773 15.5655C163.814 18.3011 162.87 21.0413 161.921 23.78C161.312 25.5373 160.697 27.293 160.096 29.0518C160.015 29.2882 159.892 29.3562 159.649 29.3532C158.53 29.3408 157.41 29.3362 156.291 29.3547C155.988 29.3593 155.87 29.2388 155.773 28.973C154.793 26.3255 153.993 23.6239 153.313 20.8852C153.288 20.7863 153.282 20.6828 153.177 20.5838C152.888 21.658 152.582 22.7105 152.322 23.7754C151.878 25.5991 151.164 27.3332 150.574 29.109C150.509 29.3052 150.399 29.3532 150.206 29.3516C149.048 29.3439 147.889 29.3423 146.732 29.3532C146.5 29.3547 146.393 29.2759 146.317 29.0564C145.607 26.9962 144.885 24.9376 144.163 22.8805C143.307 20.4355 142.447 17.992 141.591 15.547C141.557 15.4496 141.54 15.3491 141.508 15.2131Z" fill="#A7A8AA"/>
<path d="M133.764 14.9685C135.742 14.9531 137.53 15.5883 138.98 17.0287C140.076 18.1183 140.729 19.4567 140.949 20.9884C141.168 22.5262 141.055 24.03 140.417 25.4704C139.502 27.5352 137.94 28.852 135.754 29.3682C133.385 29.9292 131.124 29.6479 129.127 28.1596C127.588 27.0128 126.773 25.4178 126.504 23.5338C126.286 22.0038 126.415 20.5077 127.059 19.092C128.107 16.7876 129.908 15.46 132.405 15.052C132.841 14.9809 133.274 14.9871 133.764 14.9685ZM133.719 18.1353C132.348 18.1338 131.306 18.6623 130.583 19.8169C129.761 21.1321 129.691 22.5432 130.197 23.9898C130.472 24.7764 130.962 25.3993 131.666 25.8599C132.501 26.4054 133.43 26.5028 134.371 26.3699C135.403 26.2246 136.261 25.7223 136.83 24.8151C137.47 23.795 137.679 22.6823 137.475 21.4984C137.155 19.6329 135.694 18.0982 133.719 18.1353Z" fill="#A7A8AA"/>
<path d="M113.44 17.0891C114.055 16.5528 114.63 16.0691 115.301 15.7043C118.146 14.1604 122.033 15.1696 123.412 18.5435C123.84 19.5898 124.041 20.6763 124.039 21.8061C124.036 24.1831 124.035 26.5601 124.046 28.9371C124.047 29.2292 123.984 29.3405 123.665 29.3328C122.766 29.3111 121.863 29.3111 120.964 29.3328C120.644 29.3405 120.553 29.2493 120.556 28.9263C120.57 26.6142 120.568 24.3006 120.56 21.9884C120.557 21.1585 120.414 20.3564 119.959 19.6362C119.389 18.7305 118.561 18.2977 117.502 18.2081C116.377 18.1123 115.426 18.443 114.649 19.2467C114.031 19.885 113.674 20.6655 113.612 21.5511C113.443 23.976 113.578 26.404 113.539 28.8305C113.531 29.3266 113.538 29.3266 113.04 29.3281C112.178 29.3281 111.315 29.3189 110.454 29.3328C110.179 29.3374 110.066 29.2648 110.066 28.968C110.074 24.4968 110.074 20.0256 110.066 15.5529C110.066 15.2778 110.158 15.2051 110.422 15.2082C111.246 15.2221 112.069 15.2206 112.892 15.2082C113.133 15.2051 113.222 15.27 113.241 15.5251C113.278 16.0289 113.366 16.5312 113.44 17.0891Z" fill="#A7A8AA"/>
<path d="M71.5849 27.1076C71.5849 27.8819 71.5726 28.5696 71.5911 29.2558C71.5973 29.5139 71.5169 29.5866 71.2666 29.5727C70.8941 29.5526 70.5185 29.5418 70.1476 29.5742C69.7859 29.6067 69.6762 29.5093 69.6778 29.1229C69.6948 25.2406 69.6886 21.3597 69.6886 17.4774C69.6886 14.7913 69.6947 12.1051 69.6808 9.41902C69.6793 9.10836 69.7689 9.02182 70.0672 9.04191C70.4381 9.06664 70.8153 9.06973 71.1862 9.04191C71.5015 9.01718 71.5958 9.10836 71.5927 9.43602C71.5772 11.5441 71.5849 13.6522 71.5849 15.7603C71.5849 16.2564 71.5849 16.751 71.5849 17.346C72.1367 16.6413 72.7085 16.1003 73.3963 15.6939C74.8475 14.8345 76.4348 14.6089 78.0792 14.765C79.9833 14.9458 81.6185 15.7031 82.8611 17.1961C83.7992 18.3243 84.2984 19.6442 84.4576 21.0908C84.6585 22.9006 84.4638 24.6548 83.5674 26.2776C82.4546 28.2899 80.6989 29.3748 78.4579 29.7087C76.713 29.9683 75.0531 29.6948 73.5168 28.7953C72.9249 28.4491 72.401 28.0179 71.945 27.5048C71.8477 27.3919 71.7457 27.2838 71.5849 27.1076ZM77.2168 27.9221C77.4734 27.902 77.7315 27.8942 77.9865 27.8602C79.6155 27.6485 80.9431 26.9329 81.8148 25.5033C82.5968 24.2205 82.7467 22.8064 82.5983 21.3443C82.4933 20.3196 82.1872 19.3583 81.5443 18.5376C80.464 17.1606 78.9834 16.6119 77.2864 16.5794C75.3143 16.5423 73.6899 17.2626 72.5694 18.924C71.7225 20.179 71.4999 21.5839 71.6638 23.0799C71.9744 25.9577 74.3236 28.021 77.2168 27.9221Z" fill="#484848"/>
<path d="M64.781 17.3753C64.781 16.5995 64.7964 15.9225 64.7732 15.2471C64.764 14.9689 64.8783 14.9287 65.1117 14.9365C65.5228 14.9504 65.937 14.9581 66.3466 14.9349C66.6263 14.9195 66.6866 15.0215 66.685 15.2842C66.6742 17.2378 66.6789 19.1913 66.6789 21.1464C66.6789 23.7939 66.668 26.4429 66.6897 29.0904C66.6928 29.5092 66.5676 29.6128 66.1812 29.5757C65.8366 29.5432 65.4857 29.551 65.1395 29.5742C64.8613 29.5927 64.7609 29.5247 64.7717 29.2233C64.798 28.5618 64.7794 27.8988 64.7794 27.1276C63.1025 29.1445 61.0099 29.9822 58.5154 29.7612C56.5078 29.5834 54.8231 28.7272 53.5203 27.1709C51.0289 24.1926 51.3333 19.383 54.0983 16.7509C56.7906 14.1915 62.033 13.8979 64.781 17.3753ZM59.3222 27.922C62.8568 27.7937 65.0375 25.4491 64.8598 21.8342C64.7222 19.0306 62.7409 16.5469 59.1027 16.6288C55.7906 16.703 53.5342 19.2964 53.7413 22.7831C53.9128 25.6918 56.3934 28.0286 59.3222 27.922Z" fill="#484848"/>
<path d="M100.293 23.1661C98.3235 23.1661 96.353 23.1661 94.384 23.1661C93.9296 23.1661 93.9296 23.1661 94.0223 23.6065C94.5664 26.1999 96.5833 27.8397 99.3158 27.8722C100.912 27.8923 102.394 27.4982 103.666 26.4843C103.906 26.2942 104.124 26.067 104.312 25.8259C104.447 25.6544 104.527 25.6776 104.669 25.795C104.985 26.0593 105.302 26.3236 105.635 26.5631C105.85 26.7177 105.824 26.8259 105.671 27.0113C104.727 28.1581 103.526 28.9185 102.116 29.3451C100.081 29.9617 98.0515 29.9648 96.0964 29.0669C93.7117 27.9727 92.4397 26.0299 92.0765 23.4814C91.7659 21.3068 92.1955 19.2806 93.5587 17.5218C94.8909 15.8032 96.6806 14.8929 98.849 14.7491C100.54 14.6363 102.152 14.9191 103.623 15.8078C105.359 16.8572 106.272 18.4383 106.591 20.4011C106.723 21.2187 106.7 22.0394 106.666 22.8616C106.655 23.1274 106.553 23.1707 106.317 23.1707C104.309 23.163 102.3 23.1661 100.293 23.1661ZM99.4147 21.4366C101.127 21.4366 102.838 21.4366 104.55 21.4351C104.705 21.4351 104.898 21.4969 104.87 21.2048C104.731 19.786 104.266 18.5279 103.098 17.6207C101.977 16.7521 100.671 16.4956 99.2895 16.5219C96.5725 16.5744 94.4566 18.3997 94.0053 21.0657C93.959 21.3393 93.9992 21.4474 94.3191 21.4444C96.0161 21.4274 97.7146 21.4366 99.4147 21.4366Z" fill="#484848"/>
<path d="M45.0496 21.6904C45.0805 22.9175 44.9831 24.4105 45.1083 25.8989C45.1747 26.6824 45.3973 27.415 46.1963 27.755C46.9042 28.0564 47.6522 28.024 48.391 27.8308C48.7635 27.7334 49.1251 27.5989 49.4682 27.4212C49.6259 27.3393 49.731 27.3161 49.8098 27.5278C49.9566 27.9235 50.1266 28.3114 50.2982 28.6978C50.3553 28.8292 50.3971 28.9281 50.2302 29.01C48.8006 29.7179 47.3184 30.0192 45.7543 29.5417C44.317 29.1027 43.6107 28.0348 43.3263 26.6299C43.2119 26.0627 43.1687 25.4862 43.1702 24.9066C43.1733 22.2839 43.164 19.6627 43.181 17.0399C43.1841 16.6721 43.0697 16.5994 42.7328 16.6103C41.974 16.635 41.2136 16.6072 40.4547 16.6242C40.2121 16.6288 40.1441 16.5562 40.158 16.3212C40.1781 15.9627 40.1781 15.601 40.158 15.2425C40.1456 15.006 40.2182 14.9318 40.4593 14.9364C41.2445 14.9504 42.0296 14.9287 42.8147 14.9488C43.096 14.955 43.1857 14.8932 43.181 14.5933C43.1609 13.4497 43.1795 12.306 43.1671 11.1623C43.164 10.9212 43.2212 10.8253 43.4793 10.8145C43.8889 10.7975 44.3 10.7481 44.7065 10.6832C44.9738 10.6399 45.0619 10.6986 45.0573 10.9861C45.0418 12.1298 45.048 13.2735 45.0527 14.4187C45.0557 15.0122 44.9692 14.938 45.5951 14.9411C46.9073 14.9457 48.221 14.9504 49.5331 14.9364C49.8082 14.9334 49.8917 15.0184 49.8747 15.2857C49.8531 15.618 49.8515 15.9549 49.8747 16.2872C49.8948 16.5654 49.7912 16.6273 49.5269 16.6257C48.1623 16.6133 46.7975 16.6288 45.4344 16.6133C45.1361 16.6103 45.0403 16.6829 45.0434 16.9951C45.0588 18.4695 45.0496 19.9486 45.0496 21.6904Z" fill="#484848"/>
<path d="M89.3637 19.3023C89.3637 22.5928 89.3591 25.8816 89.3714 29.1721C89.373 29.4827 89.3143 29.6033 88.9789 29.5754C88.5832 29.543 88.1798 29.5492 87.7826 29.5739C87.4983 29.5925 87.4411 29.4827 87.4488 29.2246C87.4658 28.5832 87.455 27.9403 87.455 27.2973C87.455 21.361 87.4581 15.4231 87.4473 9.4867C87.4473 9.14051 87.523 9.00914 87.8862 9.04468C88.2308 9.07869 88.5817 9.07405 88.9279 9.04623C89.2664 9.01841 89.3761 9.10805 89.3745 9.47434C89.3575 12.7478 89.3637 16.0258 89.3637 19.3023Z" fill="#484848"/>
</svg>
